# xmcd
#
# Track frame offsets:
#	150
#	15207
#	29230
#	44105
#	61470
#	78425
#	92992
#	108490
#	123715
#	139577
#	155059
#	171702
#
# Disc length: 2479 seconds
#
# Revision: 1
# Processed by: cddbd v1.5.2PL0 Copyright (c) Steve Scherf et al.
# Submitted via: audiograbber 1.83.01
#
DISCID=b109ad0c
DTITLE=Various Artists Nacional - Forró é... Pura Malícia
DYEAR=1900
DGENRE=
TTITLE0=Bate coxa
TTITLE1=Somos todos iguais
TTITLE2=Doidinha pra comer
TTITLE3=Moreno lindo
TTITLE4=Menino levado
TTITLE5=Beijo de lingua
TTITLE6=Waldemar
TTITLE7=Já não levanta mais
TTITLE8=Eu quero é mais
TTITLE9=Forró do rala-rala
TTITLE10=Meu baton na sua boca
TTITLE11=Pura Malícia
EXTD=
EXTT0=
EXTT1=
EXTT2=
EXTT3=
EXTT4=
EXTT5=
EXTT6=
EXTT7=
EXTT8=
EXTT9=
EXTT10=
EXTT11=
PLAYORDER=
